<?xml version="1.0" standalone="no"?><!DOCTYPE svg PUBLIC "-//W3C//DTD SVG 1.1//EN" "http://www.w3.org/Graphics/SVG/1.1/DTD/svg11.dtd"><svg t="1515571284936" class="icon" style="" viewBox="0 0 1024 1024" version="1.1" xmlns="http://www.w3.org/2000/svg" p-id="992" xmlns:xlink="http://www.w3.org/1999/xlink" width="200" height="200"><defs><style type="text/css"></style></defs><path d="M541.201 462.523c-16.642-16.249-43.628-16.249-60.272 0l-303.942 296.035c-16.643 16.25-16.642 42.596 0 58.845s43.629 16.25 60.272 0l273.807-266.682 273.807 266.682c16.645 16.25 43.631 16.25 60.275 0 16.643-16.249 16.642-42.596 0-58.845l-303.943-296.034zM237.259 560.706l273.807-266.682 273.807 266.682c16.645 16.25 43.631 16.25 60.275 0 16.643-16.25 16.642-42.596 0-58.845l-303.944-296.034c-16.642-16.249-43.628-16.249-60.272 0l-303.942 296.035c-16.643 16.249-16.642 42.596 0 58.845 16.644 16.249 43.631 16.25 60.272 0z" fill="#707070" p-id="993"></path></svg>